/* XPM */
static char * dict_xpm[] = {
"60 60 574 2",
"  	c None",
". 	c #E3FD03",
"+ 	c #E2FC02",
"@ 	c #000000",
"# 	c #38190C",
"$ 	c #010100",
"% 	c #040400",
"& 	c #4B5D4B",
"* 	c #477847",
"= 	c #437743",
"- 	c #607B60",
"; 	c #3F3F3F",
"> 	c #0F0F0F",
", 	c #454D00",
"' 	c #290F06",
") 	c #E06231",
"! 	c #1C0D06",
"~ 	c #CFE702",
"{ 	c #728306",
"] 	c #83C779",
"^ 	c #90F090",
"/ 	c #8AEF8A",
"( 	c #83ED83",
"_ 	c #A5F2A5",
": 	c #FFFFFF",
"< 	c #FEFEFE",
"[ 	c #CDCDCD",
"} 	c #7D7D7D",
"| 	c #424528",
"1 	c #847B00",
"2 	c #C5CE03",
"3 	c #C2CA03",
"4 	c #B3900A",
"5 	c #DA5026",
"6 	c #8F4723",
"7 	c #DEF702",
"8 	c #CBF019",
"9 	c #96F17F",
"0 	c #89EF87",
"a 	c #84ED84",
"b 	c #7DEC7D",
"c 	c #91EE91",
"d 	c #FDFDFD",
"e 	c #FBFBFB",
"f 	c #F9F9F9",
"g 	c #F3F7C8",
"h 	c #DFCB27",
"i 	c #E2FA03",
"j 	c #E2F703",
"k 	c #DFD208",
"l 	c #DA5525",
"m 	c #E06230",
"n 	c #D76E37",
"o 	c #0F0804",
"p 	c #E1FB02",
"q 	c #DAFB0F",
"r 	c #9CF166",
"s 	c #85ED7D",
"t 	c #77EA77",
"u 	c #71E971",
"v 	c #FCFCFC",
"w 	c #FAFAFA",
"x 	c #F7F7F7",
"y 	c #F1F6C7",
"z 	c #E3E03A",
"A 	c #E1FA02",
"B 	c #E1E306",
"C 	c #DB6521",
"D 	c #E06530",
"E 	c #E6763B",
"F 	c #683D1C",
"G 	c #98AA02",
"H 	c #E1FC05",
"I 	c #C4F725",
"J 	c #8AED66",
"K 	c #76EA76",
"L 	c #6BE76B",
"M 	c #E0F8E0",
"N 	c #F8F8F8",
"O 	c #F6F6F6",
"P 	c #F2F4DD",
"Q 	c #E9F866",
"R 	c #E1E905",
"S 	c #DB711F",
"T 	c #E0662F",
"U 	c #D3982D",
"V 	c #A1B401",
"W 	c #CFE701",
"X 	c #E2FC03",
"Y 	c #DCFB0A",
"Z 	c #CCF919",
"` 	c #B2F42F",
" .	c #90ED49",
"..	c #74E858",
"+.	c #CCF4BD",
"@.	c #F5F5F5",
"#.	c #F2F3EE",
"$.	c #E9F770",
"%.	c #E0E804",
"&.	c #DB6821",
"*.	c #B65226",
"=.	c #AC582C",
"-.	c #C8AE1B",
";.	c #D2E803",
">.	c #170000",
",.	c #A0B301",
"'.	c #D7FA0C",
").	c #C5F719",
"!.	c #AEF225",
"~.	c #C0F367",
"{.	c #F6F8E8",
"].	c #F5F6F5",
"^.	c #F4F4F4",
"/.	c #F1F1F1",
"(.	c #E8F571",
"_.	c #DCE505",
":.	c #331C05",
"<.	c #0D0E29",
"[.	c #21203F",
"}.	c #999D1D",
"|.	c #E0FA02",
"1.	c #CFE501",
"2.	c #657100",
"3.	c #220000",
"4.	c #BB2F2F",
"5.	c #6C770A",
"6.	c #DAFA06",
"7.	c #CAF623",
"8.	c #EFF8A5",
"9.	c #F3F4EF",
"0.	c #F2F2F2",
"a.	c #F0F0F0",
"b.	c #E7F571",
"c.	c #C8DE02",
"d.	c #244179",
"e.	c #7188BB",
"f.	c #A8B9B6",
"g.	c #D6EA4F",
"h.	c #DDD809",
"i.	c #740000",
"j.	c #3A0000",
"k.	c #510000",
"l.	c #B20F0F",
"m.	c #F2CFCF",
"n.	c #79763D",
"o.	c #C9E002",
"p.	c #D0F80D",
"q.	c #D2F90C",
"r.	c #DDFB06",
"s.	c #DBFA07",
"t.	c #E7F94A",
"u.	c #F0F4D5",
"v.	c #F0F1ED",
"w.	c #EFEFEF",
"x.	c #E7F470",
"y.	c #D0EA13",
"z.	c #B1BED4",
"A.	c #B0BDD9",
"B.	c #BCCCA4",
"C.	c #D0E63D",
"D.	c #E1FB05",
"E.	c #E7FA31",
"F.	c #F6DFDF",
"G.	c #D86F6F",
"H.	c #C21F1F",
"I.	c #8B0000",
"J.	c #AE0000",
"K.	c #CB3F3F",
"L.	c #BE6859",
"M.	c #A3B602",
"N.	c #DEFA03",
"O.	c #A0F029",
"P.	c #A0F028",
"Q.	c #BFF615",
"R.	c #D6F907",
"S.	c #DEFB03",
"T.	c #E4FC12",
"U.	c #EBF692",
"V.	c #EEF1D8",
"W.	c #ECEDEA",
"X.	c #E6F46F",
"Y.	c #D8F119",
"Z.	c #C1CBDA",
"`.	c #B0BDD8",
" +	c #C2D48A",
".+	c #D7EE2E",
"++	c #DFF907",
"@+	c #DEE020",
"#+	c #DC7F7F",
"$+	c #E9AFAF",
"%+	c #FAEFEF",
"&+	c #EDBFBF",
"*+	c #FEFEFC",
"=+	c #A6AF0C",
"-+	c #DFFB04",
";+	c #8DEC2C",
">+	c #5AE242",
",+	c #4CDF44",
"'+	c #81E92B",
")+	c #C8F70D",
"!+	c #E2FC05",
"~+	c #E3FA1E",
"{+	c #E9F390",
"]+	c #EBEDD6",
"^+	c #E5F36F",
"/+	c #D9F217",
"(+	c #DFE7D2",
"_+	c #B0BDD5",
":+	c #C1D569",
"<+	c #DCF41D",
"[+	c #DCF60D",
"}+	c #D1D833",
"|+	c #D35F5F",
"1+	c #CF4F4F",
"2+	c #E59F9F",
"3+	c #D87B65",
"4+	c #CDD429",
"5+	c #DDF903",
"6+	c #88EA27",
"7+	c #4FDF3C",
"8+	c #3FDC3F",
"9+	c #5BE231",
"0+	c #9AEE18",
"a+	c #D9FA04",
"b+	c #E2FB06",
"c+	c #E5F654",
"d+	c #E9EEBE",
"e+	c #E5F274",
"f+	c #E3FC09",
"g+	c #DCF611",
"h+	c #C2D488",
"i+	c #A3B3C5",
"j+	c #D4E85B",
"k+	c #DFF80F",
"l+	c #DDF616",
"m+	c #B4C246",
"n+	c #E08F8F",
"o+	c #EFD8A7",
"p+	c #E6F037",
"q+	c #DCF802",
"r+	c #7BE825",
"s+	c #48B937",
"t+	c #124412",
"u+	c #0E0F00",
"v+	c #7A8801",
"w+	c #D4EF03",
"x+	c #C9DC24",
"y+	c #D0D69E",
"z+	c #E5F082",
"A+	c #E2F91A",
"B+	c #DEF70A",
"C+	c #C6DD48",
"D+	c #D0DAD0",
"E+	c #C6DD45",
"F+	c #E1FB08",
"G+	c #CEE81E",
"H+	c #A1AA63",
"I+	c #EFE896",
"J+	c #DEDB14",
"K+	c #E0F902",
"L+	c #D9F503",
"M+	c #57A818",
"N+	c #0C0D00",
"O+	c #BAD001",
"P+	c #313700",
"Q+	c #798231",
"R+	c #D2E627",
"S+	c #DFF904",
"T+	c #D7F01D",
"U+	c #BDCDA2",
"V+	c #E7F03C",
"W+	c #E1F904",
"X+	c #DDE822",
"Y+	c #CECA90",
"Z+	c #D9A734",
"`+	c #E6FA25",
" @	c #D9F201",
".@	c #D7F203",
"+@	c #292E00",
"@@	c #9DAF02",
"#@	c #DEF801",
"$@	c #E1FA06",
"%@	c #DFB846",
"&@	c #E2E625",
"*@	c #E3FB07",
"=@	c #E3F121",
"-@	c #E1B75B",
";@	c #EEFD73",
">@	c #E3F312",
",@	c #D7EF09",
"'@	c #B5CA01",
")@	c #D7F002",
"!@	c #BDD301",
"~@	c #313600",
"{@	c #151800",
"]@	c #97A801",
"^@	c #DAF402",
"/@	c #EFFD74",
"(@	c #E3EA21",
"_@	c #E1F804",
":@	c #E1F108",
"<@	c #E1D632",
"[@	c #DAB621",
"}@	c #E2F30F",
"|@	c #DDEC0A",
"1@	c #90A101",
"2@	c #E2FB02",
"3@	c #D5ED02",
"4@	c #8F9C20",
"5@	c #8B8E6F",
"6@	c #7F7F7F",
"7@	c #A6B04E",
"8@	c #E0BB56",
"9@	c #E7F53B",
"0@	c #E3FD0A",
"a@	c #E6FA28",
"b@	c #EBF856",
"c@	c #E4FC11",
"d@	c #E5FB19",
"e@	c #9AA415",
"f@	c #F2FD90",
"g@	c #FCFEE6",
"h@	c #F4FE9C",
"i@	c #F2E4B3",
"j@	c #DBB52B",
"k@	c #DEE303",
"l@	c #E1FA01",
"m@	c #DFE10B",
"n@	c #E0A96C",
"o@	c #F0E89B",
"p@	c #E9F24F",
"q@	c #E1E51F",
"r@	c #E0D32B",
"s@	c #E3BF68",
"t@	c #E1DB23",
"u@	c #E1F703",
"v@	c #E2F113",
"w@	c #A98601",
"x@	c #D2EDA9",
"y@	c #F3FAF0",
"z@	c #F3FD9B",
"A@	c #A6340D",
"B@	c #6D4D00",
"C@	c #A9BC09",
"D@	c #DCF505",
"E@	c #D9F103",
"F@	c #BFC302",
"G@	c #CDC601",
"H@	c #E1F008",
"I@	c #E2FA05",
"J@	c #E5FD16",
"K@	c #E8E85A",
"L@	c #E5F132",
"M@	c #DAD302",
"N@	c #696E00",
"O@	c #E0FA04",
"P@	c #D4F42B",
"Q@	c #8FCCC6",
"R@	c #76BBF4",
"S@	c #ADD5FB",
"T@	c #ECF99A",
"U@	c #464019",
"V@	c #B7BAA1",
"W@	c #E9F391",
"X@	c #E3F739",
"Y@	c #E1FB03",
"Z@	c #DFED03",
"`@	c #DBB829",
" #	c #E2E224",
".#	c #E1F902",
"+#	c #B9C902",
"@#	c #808F01",
"##	c #D7F213",
"$#	c #BAE680",
"%#	c #89C9E4",
"&#	c #6FB9F9",
"*#	c #5DADF8",
"=#	c #93CB97",
"-#	c #E1E5BE",
";#	c #EEEEEE",
">#	c #EAECD2",
",#	c #E5F17A",
"'#	c #E2FC06",
")#	c #D8EF0F",
"!#	c #A1B305",
"~#	c #655800",
"{#	c #5D0000",
"]#	c #C4BD02",
"^#	c #D5EE01",
"/#	c #DAF301",
"(#	c #B3CD2B",
"_#	c #9DD6DB",
":#	c #82C6F6",
"<#	c #5EADF5",
"[#	c #88C693",
"}#	c #EDF1C9",
"|#	c #ECECEC",
"1#	c #E9E9E9",
"2#	c #E5EAB8",
"3#	c #E2F164",
"4#	c #E2F72E",
"5#	c #E2F729",
"6#	c #E1F625",
"7#	c #E0F52F",
"8#	c #DDEC5A",
"9#	c #96984E",
"0#	c #141700",
"a#	c #C2D802",
"b#	c #E1FB01",
"c#	c #CEE602",
"d#	c #718F5D",
"e#	c #8CCCF7",
"f#	c #7CC1FA",
"g#	c #6BB6F9",
"h#	c #62B0E7",
"i#	c #90CA83",
"j#	c #DEE6C6",
"k#	c #EAEAEA",
"l#	c #E8E8E8",
"m#	c #E5E5E5",
"n#	c #E2E2E2",
"o#	c #DFDFDB",
"p#	c #DDE0C4",
"q#	c #DBE0B3",
"r#	c #D8DBBB",
"s#	c #D8C5B0",
"t#	c #D87943",
"u#	c #C8DF01",
"v#	c #486879",
"w#	c #7EC3F9",
"x#	c #72BBF9",
"y#	c #63B1F8",
"z#	c #70B7C4",
"A#	c #A6D75C",
"B#	c #E0FA03",
"C#	c #DDF006",
"D#	c #D04A1E",
"E#	c #DA827B",
"F#	c #E3CECB",
"G#	c #E3E3E3",
"H#	c #E0E0E0",
"I#	c #DEDEDD",
"J#	c #DBDBD7",
"K#	c #D8D8D2",
"L#	c #D9BDAB",
"M#	c #E47B43",
"N#	c #E98040",
"O#	c #583319",
"P#	c #BCD201",
"Q#	c #3A5E7D",
"R#	c #65B2F9",
"S#	c #58A9F8",
"T#	c #7ABDA7",
"U#	c #BDE138",
"V#	c #E1F701",
"W#	c #DDD702",
"X#	c #CD3309",
"Y#	c #CD2010",
"Z#	c #D02C16",
"`#	c #D65740",
" $	c #DA8774",
".$	c #DB9582",
"+$	c #DC9A83",
"@$	c #DF7A51",
"#$	c #E46F37",
"$$	c #E77A3D",
"%$	c #EA8542",
"&$	c #D07D3F",
"*$	c #31587C",
"=$	c #5EAEF8",
"-$	c #56A8F7",
";$	c #4BA1F7",
">$	c #92A773",
",$	c #DCD305",
"'$	c #E2F602",
")$	c #DDC803",
"!$	c #CD350B",
"~$	c #CE2512",
"{$	c #D23018",
"]$	c #D53C1E",
"^$	c #D84723",
"/$	c #DB5229",
"($	c #DF5D2E",
"_$	c #E26834",
":$	c #E57339",
"<$	c #E87F3F",
"[$	c #EC8A45",
"}$	c #EF954A",
"|$	c #3C2713",
"1$	c #28527B",
"2$	c #4DA2F7",
"3$	c #469EF6",
"4$	c #715F99",
"5$	c #CF5E00",
"6$	c #DCCF01",
"7$	c #E1F403",
"8$	c #DBBA05",
"9$	c #CF370D",
"0$	c #D02A15",
"a$	c #D3351A",
"b$	c #D64020",
"c$	c #DA4C26",
"d$	c #DD572B",
"e$	c #E36D36",
"f$	c #E6783C",
"g$	c #EA8342",
"h$	c #ED8F47",
"i$	c #F09A4D",
"j$	c #996931",
"k$	c #333900",
"l$	c #14304C",
"m$	c #3C95F4",
"n$	c #5A6CB6",
"o$	c #C40000",
"p$	c #C34B00",
"q$	c #CCB402",
"r$	c #DEF002",
"s$	c #DDE502",
"t$	c #D89A06",
"u$	c #CF3610",
"v$	c #D12F17",
"w$	c #D53A1D",
"x$	c #D84522",
"y$	c #DB5028",
"z$	c #DE5C2E",
"A$	c #E16733",
"B$	c #E57239",
"C$	c #E87D3E",
"D$	c #EB8844",
"E$	c #EE934A",
"F$	c #F1A14D",
"G$	c #E4AC43",
"H$	c #6D7A01",
"I$	c #0B1F3B",
"J$	c #2A7CEA",
"K$	c #A40F1D",
"L$	c #490000",
"M$	c #242900",
"N$	c #A6B901",
"O$	c #514801",
"P$	c #5F1B07",
"Q$	c #B82D17",
"R$	c #D63F1F",
"S$	c #D94A25",
"T$	c #DC552A",
"U$	c #E06030",
"V$	c #E36C36",
"W$	c #E6773B",
"X$	c #E98241",
"Y$	c #ED8D46",
"Z$	c #F0984C",
"`$	c #F1AC49",
" %	c #969213",
".%	c #DDF601",
"+%	c #061938",
"@%	c #58387E",
"#%	c #240000",
"$%	c #361108",
"%%	c #883118",
"&%	c #D0552A",
"*%	c #E16532",
"=%	c #E47038",
"-%	c #E77C3E",
";%	c #EB8743",
">%	c #EE9249",
",%	c #D38944",
"'%	c #564B11",
")%	c #010E28",
"!%	c #0D091B",
"~%	c #381A0D",
"{%	c #723A1D",
"]%	c #743F1F",
"^%	c #764522",
"/%	c #4A2E17",
"                                                                                                                        ",
"                                                                                                                        ",
"                                                                                                                        ",
"                                                                                                                        ",
"                                                                                                                        ",
"                                                                                                                        ",
"                                                                      . . . . . + . . . +                               ",
"                                                + .             . + . + + + + . . . + . + + . +                         ",
"                                              + + . +         + + . . . . . . . . . . . . . + . . +                     ",
"                                              + . . .       + . . . + + + . + . . . + + + . + . . . + .                 ",
"                                              . + + +       . + + + . + +             + . . + + + + . . .               ",
"                                              . + +           . + +                   . + . . + + + + . . .             ",
"                                                        @                             + . . .     + + + . +             ",
"                              @ @                     @ # $                           + + . . +       . . .             ",
"                          % & * = - ; > @           , ' ) !                           + + . + +         . .             ",
"                    . ~ { ] ^ / ( _ : < [ } | 1 2 3 4 5 ) 6 @                         . . . + .           .             ",
"                    . 7 8 9 0 a b c < d e f g h i j k l m n o   + . . . . + +         + . . . .                         ",
"                    . p q r s b t u < v w x y z + A B C D E F G . . . . . + . +       + . . . +                         ",
"                  + + + H I J K u L M w N O P Q i + R S T E U V . . . . . . . +     @ W . . . +                         ",
"              . + . . . X Y Z `  ...+.f x @.#.$.p . %.&.*.=.-.;.. . . . +         @ >.,.+ . . +                         ",
"              . + . . . + + + '.).!.~.{.].^./.(.. . _.:.<.[.}.|.. 1.2.            3.4.5.+ . + .                         ",
"              + . + . . . . . . . 6.7.8.9.0.a.b.. . c.d.e.f.g.. p h.i.j.@ @ @ @ k.l.m.n.o.. . +                         ",
"                . . . . X p.q.r.+ + s.t.u.v.w.x.. . y.z.A.B.C.. D.E.F.G.H.I.I.J.K.F.m.L.M.. . .                         ",
"                    . . N.O.P.Q.R.S.p T.U.V.W.X.. . Y.Z.`. +.+. ++@+#+$+: %+&+%+: $+G.*+=+. . .                         ",
"                    . . -+;+>+,+'+)+. !+~+{+]+^+. . /+(+_+:+<+. [+}+%+m.G.G.|+1+K.2+: 3+4+. . .                         ",
"                    . . 5+6+7+8+9+0+a++ b+c+d+e+f+. g+h+i+j+k+. l+m+n+n+$+: : : : F.|+o+p+. + .                         ",
"                    . . q+r+s+t+u+v+w+. . x+y+z+A+. B+C+D+E+F+. G+H+2+%+m.G.#+K.1+|+F.I+J+. K++                         ",
"                  . + . L+M+N+      . . . O+P+Q+R+. S+T+U+V+W+. X+Y+F.n+#+$+%+: : %+2+Z+`+.  @+                         ",
"                  . . + .@+@        + . . +     @@#@p $@%@&@*@. =@-@n+2+%+m.#+K.K.1+2+;@>@. ,@'@                        ",
"                  . . + )@          + . . !@~@{@]@^@. . /@(@_@. :@<@F.F.n+#+$+%+: : $+[@}@. |@1@                        ",
"                  . . 2@3@          + . . 4@5@6@7@. . . 8@9@0@. . a@2+#+2+: m.#+1+1+n+b@c@. d@e@                        ",
"                  . . . .           2@. . f@g@: h@. . . i@j@k@. l@m@n@o@p@q@r@s@&+&+&+t@u@. v@w@@                       ",
"                  . . + .         . + . . x@y@: z@. . . A@B@C@D@p E@F@G@H@I@J@K@n+#+#+L@X . M@N@                        ",
"                  + . + +         + . O@P@Q@R@S@T@. . . U@V@W@X@. . . Y@+ . Z@`@n+&+&+ #.#. +#@#                        ",
"                  + . + +       . + + ##$#%#&#*#=#. . . -#;#>#,#A+. . . '#)#!#~#{#i.I.]#K+. ^#                          ",
"                  + . . +     + . . /#(#_#:#&#<#[#. . . }#|#1#2#3#4#5#6#7#8#9#0#  @ @ a#b#. +                           ",
"                  . . . +   . . . + c#d#e#f#g#h#i#. . p j#k#l#m#n#o#p#q#r#s#t#o       + . . + .                         ",
"                  + . . + + . + . . u#v#w#x#y#z#A#. B#C#D#E#F#G#H#I#J#K#L#M#N#O#      . . . . .                         ",
"                . . . . + . . . . + P#Q#&#R#S#T#U#. V#W#X#Y#Z#`# $.$+$@$#$$$%$&$@     + . . + +                         ",
"            . + . . . . + . . . . +   *$=$-$;$>$,$. '$)$!$~${$]$^$/$($_$:$<$[$}$|$    + . . . +                         ",
"            + . . . . . . . . .       1$2$3$4$5$6$. 7$8$9$0$a$b$c$d$) e$f$g$h$i$j$k$. + . . +                           ",
"            . . . . . + + . .         l$m$n$o$p$q$r$s$t$u$v$w$x$y$z$A$B$C$D$E$F$G$H$. . . + .                           ",
"            . . + . . . .             I$J$K$L$M$@#O+N$O$P$Q$R$S$T$U$V$W$X$Y$Z$`$ %.%+ . + .                             ",
"                + . . +               +%@%#%              @ $%%%&%*%=%-%;%>%,%'%@@+ + + .                               ",
"                . . . +               )%!%                    @ @ ~%{%]%^%/%@     + . .                                 ",
"                + . . .               @                               @ @                                               ",
"              + + + . .               @                                                                                 ",
"              + . + +                                                                                                   ",
"            + . . + .                                                                                                   ",
"              . . . +                                                                                                   ",
"                  +                                                                                                     ",
"                                                                                                                        ",
"                                                                                                                        ",
"                                                                                                                        ",
"                                                                                                                        ",
"                                                                                                                        ",
"                                                                                                                        ",
"                                                                                                                        ",
"                                                                                                                        ",
"                                                                                                                        "};
